name C:\Users\sachi\predsim_tutorial_model\Results\Case_6\load_motion_data\GRF_extend.mot
datacolumns 19
datarows 30
range 0.00000000 0.65148294
endheader 
time	r_ground_force_vx	r_ground_force_vy	r_ground_force_vz	r_ground_force_px	r_ground_force_py	r_ground_force_pz	l_ground_force_vx	l_ground_force_vy	l_ground_force_vz	l_ground_force_px	l_ground_force_py	l_ground_force_pz	r_ground_torque_x	r_ground_torque_y	r_ground_torque_z	l_ground_torque_x	l_ground_torque_y	l_ground_torque_z	
          0.00000000	        -12.85731365	        295.60979793	         -6.16924540	          0.19206504	          0.00000000	          0.04320015	         65.53788912	        366.43427325	          3.16752561	         -0.32752862	          0.00000000	         -0.06754784	          0.00000000	         -0.00017257	          0.00000000	          0.00000000	         -3.06323785	          0.00000000	
          0.02246493	        -76.11544213	        566.11536318	        -10.89142182	          0.19380056	          0.00000000	          0.04311479	         43.51232386	        270.17289935	         -7.68110501	         -0.32097460	          0.00000000	         -0.06681417	          0.00000000	         -0.11135328	          0.00000000	          0.00000000	         -1.97626017	          0.00000000	
          0.04492986	        -98.94490366	        705.10991519	        -12.02590922	          0.20187852	          0.00000000	          0.04574661	         27.17668156	        166.95112124	        -20.22149054	         -0.31660488	          0.00000000	         -0.06075524	          0.00000000	         -1.05903815	          0.00000000	          0.00000000	         -0.99925056	          0.00000000	
          0.06739479	       -100.40769226	        746.76324659	        -15.40073207	          0.21164545	          0.00000000	          0.04888042	         -9.06103062	         51.53774963	        -11.64723129	         -0.30772775	          0.00000000	         -0.04051554	          0.00000000	         -1.49111909	          0.00000000	          0.00000000	         -0.13600377	          0.00000000	
          0.08985972	        -82.00065416	        724.73973362	        -13.37948517	          0.22077008	          0.00000000	          0.04980798	          0.00000000	          0.00000000	          0.00000000	          0.00000000	          0.00000000	          0.00000000	          0.00000000	         -2.31468791	          0.00000000	          0.00000000	          0.00000000	          0.00000000	
          0.11232464	        -66.28241366	        680.16180364	        -12.72867820	          0.23190210	          0.00000000	          0.04860027	          0.00000000	          0.00000000	          0.00000000	          0.00000000	          0.00000000	          0.00000000	          0.00000000	         -3.68153402	          0.00000000	          0.00000000	          0.00000000	          0.00000000	
          0.13478957	        -50.09947797	        626.31754073	        -13.05560124	          0.24178173	          0.00000000	          0.04799159	          0.00000000	          0.00000000	          0.00000000	          0.00000000	          0.00000000	          0.00000000	          0.00000000	         -4.71146504	          0.00000000	          0.00000000	          0.00000000	          0.00000000	
          0.15725450	        -35.23293694	        580.43049984	        -14.43446662	          0.25085033	          0.00000000	          0.04786465	          0.00000000	          0.00000000	          0.00000000	          0.00000000	          0.00000000	          0.00000000	          0.00000000	         -5.16687370	          0.00000000	          0.00000000	          0.00000000	          0.00000000	
          0.17971943	        -24.95602614	        552.04438978	        -16.87305009	          0.26109884	          0.00000000	          0.04787102	          0.00000000	          0.00000000	          0.00000000	          0.00000000	          0.00000000	          0.00000000	          0.00000000	         -5.27249011	          0.00000000	          0.00000000	          0.00000000	          0.00000000	
          0.20218436	        -18.81723627	        539.73859769	        -18.68655069	          0.27278118	          0.00000000	          0.04776024	          0.00000000	          0.00000000	          0.00000000	          0.00000000	          0.00000000	          0.00000000	          0.00000000	         -4.81511322	          0.00000000	          0.00000000	          0.00000000	          0.00000000	
          0.22464929	        -15.65960338	        536.29523753	        -19.08534476	          0.28473298	          0.00000000	          0.04779835	          0.00000000	          0.00000000	          0.00000000	          0.00000000	          0.00000000	          0.00000000	          0.00000000	         -3.88174524	          0.00000000	          0.00000000	          0.00000000	          0.00000000	
          0.24711422	        -11.65856294	        531.99033212	        -18.79788344	          0.29607838	          0.00000000	          0.04848674	          0.00000000	          0.00000000	          0.00000000	          0.00000000	          0.00000000	          0.00000000	          0.00000000	         -2.49202928	          0.00000000	          0.00000000	          0.00000000	          0.00000000	
          0.26957915	         -6.82544643	        524.10717173	        -17.86341370	          0.30694193	          0.00000000	          0.04958375	          0.00000000	          0.00000000	          0.00000000	          0.00000000	          0.00000000	          0.00000000	          0.00000000	         -1.04850440	          0.00000000	          0.00000000	          0.00000000	          0.00000000	
          0.29204408	         -1.46507730	        516.79368800	        -16.65350242	          0.31759096	          0.00000000	          0.05085924	          0.00000000	          0.00000000	          0.00000000	          0.00000000	          0.00000000	          0.00000000	          0.00000000	         -0.04345767	          0.00000000	          0.00000000	          0.00000000	          0.00000000	
          0.31450901	          4.19964392	        512.24588362	        -15.56755919	          0.32777730	          0.00000000	          0.05228127	          0.00000000	          0.00000000	          0.00000000	          0.00000000	          0.00000000	          0.00000000	          0.00000000	          0.63821889	          0.00000000	          0.00000000	          0.00000000	          0.00000000	
          0.33697393	         12.56145486	        511.49452300	        -16.63004901	          0.33732704	          0.00000000	          0.05380161	          0.00000000	          0.00000000	          0.00000000	          0.00000000	          0.00000000	          0.00000000	          0.00000000	          1.11452500	          0.00000000	          0.00000000	          0.00000000	          0.00000000	
          0.35943886	         20.38050257	        516.53814833	        -18.54867279	          0.34617630	          0.00000000	          0.05535689	          0.00000000	          0.00000000	          0.00000000	          0.00000000	          0.00000000	          0.00000000	          0.00000000	          1.61829408	          0.00000000	          0.00000000	          0.00000000	          0.00000000	
          0.38190379	         27.80274483	        528.93014878	        -21.32493158	          0.35450195	          0.00000000	          0.05672621	          0.00000000	          0.00000000	          0.00000000	          0.00000000	          0.00000000	          0.00000000	          0.00000000	          2.31770297	          0.00000000	          0.00000000	          0.00000000	          0.00000000	
          0.40436872	         36.80107511	        549.85257007	        -23.10745873	          0.36191051	          0.00000000	          0.05776895	          0.00000000	          0.00000000	          0.00000000	          0.00000000	          0.00000000	          0.00000000	          0.00000000	          3.09006067	          0.00000000	          0.00000000	          0.00000000	          0.00000000	
          0.42683365	         48.20600186	        583.54275546	        -22.57330804	          0.36778140	          0.00000000	          0.05841813	          0.00000000	          0.00000000	          0.00000000	          0.00000000	          0.00000000	          0.00000000	          0.00000000	          3.79284994	          0.00000000	          0.00000000	          0.00000000	          0.00000000	
          0.44929858	         59.55375833	        623.49890300	        -20.41426348	          0.37338667	          0.00000000	          0.05882654	          0.00000000	          0.00000000	          0.00000000	          0.00000000	          0.00000000	          0.00000000	          0.00000000	          4.22885673	          0.00000000	          0.00000000	          0.00000000	          0.00000000	
          0.47176351	         70.87010084	        647.64626985	        -20.12769166	          0.37912852	          0.00000000	          0.05919668	          0.00000000	          0.00000000	          0.00000000	          0.00000000	          0.00000000	          0.00000000	          0.00000000	          4.62482140	          0.00000000	          0.00000000	          0.00000000	          0.00000000	
          0.49422844	         84.09846747	        639.92464392	        -18.58240264	          0.38493712	          0.00000000	          0.05977880	          0.00000000	          0.00000000	          0.00000000	          0.00000000	          0.00000000	          0.00000000	          0.00000000	          5.08432271	          0.00000000	          0.00000000	          0.00000000	          0.00000000	
          0.51669337	         88.12535383	        590.72657910	        -15.26491420	          0.39263720	          0.00000000	          0.06092493	          0.00000000	          0.00000000	          0.00000000	          0.00000000	          0.00000000	          0.00000000	          0.00000000	          5.13159727	          0.00000000	          0.00000000	          0.00000000	          0.00000000	
          0.53915829	         82.37938280	        489.26570757	         -9.47358764	          0.40420229	          0.00000000	          0.06337190	          0.00000000	          0.00000000	          0.00000000	          0.00000000	          0.00000000	          0.00000000	          0.00000000	          4.51181785	          0.00000000	          0.00000000	          0.00000000	          0.00000000	
          0.56162322	         65.53788912	        366.43427325	         -3.16752561	          0.41943027	          0.00000000	          0.06754784	        -12.85731365	        295.60979793	          6.16924540	          0.93902393	          0.00000000	         -0.04320015	          0.00000000	          3.06323785	          0.00000000	          0.00000000	          0.00017257	          0.00000000	
          0.58408815	         43.51232386	        270.17289935	          7.68110501	          0.42598429	          0.00000000	          0.06681417	        -76.11544213	        566.11536318	         10.89142182	          0.94075945	          0.00000000	         -0.04311479	          0.00000000	          1.97626017	          0.00000000	          0.00000000	          0.11135328	          0.00000000	
          0.60655308	         27.17668156	        166.95112124	         20.22149054	          0.43035401	          0.00000000	          0.06075524	        -98.94490366	        705.10991519	         12.02590922	          0.94883741	          0.00000000	         -0.04574661	          0.00000000	          0.99925056	          0.00000000	          0.00000000	          1.05903815	          0.00000000	
          0.62901801	         -9.06103062	         51.53774963	         11.64723129	          0.43923113	          0.00000000	          0.04051554	       -100.40769226	        746.76324659	         15.40073207	          0.95860434	          0.00000000	         -0.04888042	          0.00000000	          0.13600377	          0.00000000	          0.00000000	          1.49111909	          0.00000000	
          0.65148294	          0.00000000	          0.00000000	          0.00000000	          0.00000000	          0.00000000	          0.00000000	        -82.00065416	        724.73973362	         13.37948517	          0.96772896	          0.00000000	         -0.04980798	          0.00000000	          0.00000000	          0.00000000	          0.00000000	          2.31468791	          0.00000000	
